<?xml version="1.0" encoding="utf-8"?>
<!-- Generator: Adobe Illustrator 24.0.1, SVG Export Plug-In . SVG Version: 6.00 Build 0)  -->
<svg version="1.1" id="Layer_1" xmlns="http://www.w3.org/2000/svg" xmlns:xlink="http://www.w3.org/1999/xlink" x="0px" y="0px"
	 viewBox="0 0 320.6 116.6" style="enable-background:new 0 0 320.6 116.6;" xml:space="preserve">
<style type="text/css">
	.st0{fill:none;}
	.st1{fill:#595A5C;}
	.st2{fill:#FDC20F;}
	.st3{fill:#ED2224;}
</style>
<g>
	<path id="XMLID_230_" class="st0" d="M240.9,103.1c-2.6,0-3.9,1.6-3.9,4.9c0,3.3,1.3,4.9,3.9,4.9s3.9-1.7,3.9-4.9
		C244.8,104.7,243.6,103.1,240.9,103.1z"/>
	<path id="XMLID_229_" class="st0" d="M313,103.1c-2.5,0-3.7,1.7-3.7,5c0,1.4,0.3,2.6,1,3.6c0.7,0.9,1.6,1.4,2.6,1.4
		c1,0,1.9-0.4,2.6-1.3c0.7-0.9,1-2,1-3.4C316.6,104.9,315.4,103.1,313,103.1z"/>
	<path id="XMLID_228_" class="st0" d="M294.1,103.1c-2.4,0-3.6,1.8-3.6,5.3c0,1.4,0.4,2.5,1,3.4c0.7,0.9,1.5,1.3,2.6,1.3
		c1.1,0,2-0.5,2.6-1.4c0.7-0.9,1-2.1,1-3.6C297.8,104.8,296.6,103.1,294.1,103.1z"/>
	<rect id="XMLID_226_" x="208.6" y="111.7" class="st1" width="4.6" height="4.4"/>
	<path id="XMLID_224_" class="st1" d="M220.5,104c0.3-0.4,0.6-0.6,1-0.8s0.8-0.2,1.3-0.2c0.8,0,1.5,0.2,2.1,0.7c0.6,0.5,0.9,1.1,1,2
		h4.3c-0.1-0.9-0.3-1.8-0.7-2.6c-0.4-0.8-0.9-1.4-1.5-2c-0.6-0.6-1.4-1-2.3-1.3c-0.9-0.3-1.8-0.4-2.9-0.4c-1.1,0-2.2,0.2-3.1,0.5
		c-0.9,0.3-1.7,0.8-2.4,1.5s-1.2,1.5-1.5,2.6s-0.6,2.3-0.6,3.8s0.2,2.7,0.6,3.8s0.9,2,1.5,2.7c0.7,0.7,1.4,1.3,2.4,1.6
		c0.9,0.4,1.9,0.6,3,0.6c1,0,1.9-0.2,2.7-0.5c0.9-0.3,1.6-0.7,2.3-1.3c0.7-0.6,1.2-1.2,1.6-2c0.4-0.8,0.7-1.6,0.8-2.6h-4.3
		c-0.1,0.9-0.4,1.6-1,2c-0.6,0.5-1.3,0.7-2.1,0.7c-0.8,0-1.6-0.4-2.2-1.3c-0.6-0.9-0.9-2.2-0.9-4c0-0.9,0.1-1.6,0.3-2.2
		C220,104.9,220.2,104.4,220.5,104z"/>
	<path id="XMLID_218_" class="st1" d="M246.9,101.8c-0.7-0.7-1.6-1.3-2.6-1.7s-2.1-0.6-3.4-0.6c-1.3,0-2.5,0.2-3.5,0.6
		c-1,0.4-1.9,1-2.6,1.7c-0.7,0.7-1.3,1.7-1.7,2.7c-0.4,1.1-0.6,2.2-0.6,3.5c0,1.3,0.2,2.4,0.6,3.5c0.4,1.1,0.9,1.9,1.6,2.7
		c0.7,0.8,1.6,1.3,2.6,1.8c1,0.4,2.2,0.6,3.5,0.6c1.3,0,2.4-0.2,3.4-0.6c1-0.4,1.9-1,2.6-1.7c0.7-0.7,1.3-1.6,1.7-2.7
		s0.6-2.2,0.6-3.5c0-1.3-0.2-2.5-0.6-3.5C248.2,103.4,247.7,102.5,246.9,101.8z M240.9,113c-2.6,0-3.9-1.7-3.9-4.9
		c0-3.3,1.3-4.9,3.9-4.9s3.9,1.6,3.9,4.9C244.8,111.3,243.6,113,240.9,113z"/>
	<path id="XMLID_216_" class="st1" d="M273.9,101c-0.5-0.5-1.1-0.9-1.8-1.1c-0.7-0.3-1.4-0.4-2.2-0.4c-1,0-1.9,0.2-2.6,0.6
		c-0.7,0.4-1.3,1.1-1.7,2c-0.3-0.5-0.6-0.9-0.9-1.2c-0.3-0.3-0.6-0.6-1-0.8c-0.4-0.2-0.7-0.4-1.2-0.4c-0.4-0.1-0.9-0.1-1.5-0.1
		c-1.1,0-2,0.2-2.8,0.6c-0.8,0.4-1.4,1.1-2,2.2v-2.4h-4v16.2h4.3v-9.9c0-2.1,0.9-3.2,2.6-3.2c0.5,0,0.9,0.1,1.2,0.2
		c0.3,0.1,0.6,0.3,0.8,0.5c0.2,0.3,0.4,0.6,0.4,1c0.1,0.4,0.1,1,0.1,1.6v9.7h4.3v-9.7c0-1,0.3-1.8,0.8-2.5c0.5-0.7,1.2-1,2-1
		c0.8,0,1.4,0.3,1.8,0.9c0.5,0.6,0.7,1.4,0.7,2.4v9.8h4.2v-11.2c0-0.7-0.1-1.4-0.4-2.1C274.7,102.1,274.3,101.5,273.9,101z"/>
	<rect id="XMLID_214_" x="278.7" y="111.7" class="st1" width="4.6" height="4.4"/>
	<path id="XMLID_208_" class="st1" d="M300.4,101.8c-0.6-0.7-1.3-1.3-2.1-1.7c-0.8-0.4-1.8-0.6-2.8-0.6c-2,0-3.6,0.9-4.8,2.6V94
		h-4.2v22.1h4.1l0-2c1,1.6,2.5,2.4,4.5,2.4c1,0,1.9-0.2,2.8-0.6c0.9-0.4,1.6-1,2.2-1.7c0.6-0.7,1.1-1.7,1.5-2.7
		c0.4-1.1,0.5-2.3,0.5-3.7c0-1.2-0.1-2.4-0.4-3.4C301.4,103.4,301,102.6,300.4,101.8z M296.8,111.7c-0.7,0.9-1.6,1.4-2.6,1.4
		c-1,0-1.9-0.4-2.6-1.3c-0.7-0.9-1-2-1-3.4c0-3.5,1.2-5.3,3.6-5.3c2.5,0,3.7,1.7,3.7,5C297.8,109.6,297.5,110.8,296.8,111.7z"/>
	<path id="XMLID_202_" class="st1" d="M316.4,102c-1.2-1.7-2.8-2.6-4.8-2.6c-1.1,0-2,0.2-2.8,0.6s-1.5,1-2.1,1.7
		c-0.6,0.7-1,1.6-1.3,2.6c-0.3,1-0.4,2.2-0.4,3.4c0,1.4,0.2,2.6,0.5,3.7c0.4,1.1,0.8,2,1.5,2.7c0.6,0.8,1.4,1.3,2.2,1.7
		c0.9,0.4,1.8,0.6,2.8,0.6c2,0,3.5-0.8,4.5-2.4l0,2h4.1V94h-4.2L316.4,102L316.4,102z M315.5,111.8c-0.7,0.9-1.6,1.3-2.6,1.3
		c-1.1,0-2-0.5-2.6-1.4c-0.7-0.9-1-2.1-1-3.6c0-3.3,1.2-5,3.7-5c2.4,0,3.6,1.8,3.6,5.3C316.6,109.8,316.2,110.9,315.5,111.8z"/>
	<rect id="XMLID_151_" x="3.8" y="111.9" class="st1" width="201.9" height="3.9"/>
	<path id="XMLID_87_" class="st2" d="M176.5,25.1L176.5,25.1L159.3,43c-1.3,1.3-1.9,3.1-1.9,4.8c0,2.1,0.9,4.1,2.7,5.4
		c3.3,2.5,8,1.6,10.1-1.9l10.6-17.8l1.3-2.1l0.2-0.3l0.6-0.9l0.6-1l7.2-11.9L200.8,0l-14,14.5l0,0l-9.5,9.8L176.5,25.1z"/>
	<path id="XMLID_83_" class="st1" d="M255.7,72.9c3.7,6.8,9.3,11.3,17.1,13.7c4.3,1.3,9.4,2,15.1,2c15.8,0,32.8-6.6,32.8-25.1
		c0-18.7-15.1-23.1-31.4-25.1c-9.6-1.1-15.9-3-15.9-8.5c0-5.6,5.6-9,14.6-9c8,0,14.7,4.1,17,7.9l0.5,0.8l13.1-6.7l-0.5-0.9
		c-5-10.2-15.6-15.6-30.6-15.6c-15.1,0.1-30.3,7.3-30.3,23.1c0,17.9,15.5,22.1,30.6,23.9c11.2,1.2,16.6,4.5,16.6,10.1
		c0,9.6-12.5,10.3-16.4,10.3c-8.5,0-15.4-3.1-18.9-8.6l-0.6-0.9l-0.9,0.6c-3.9,2.7-7.9,4.6-11.8,5.7l-1.2,0.3l0.6,1.1
		C255.3,72.3,255.5,72.6,255.7,72.9z"/>
	<path id="XMLID_80_" class="st1" d="M252.3,74.7c-0.2-0.3-0.4-0.7-0.5-1l-1.2-2.4h-26.1V8.9h-16.3v77.6h55.4
		C258.8,83.7,255.1,79.8,252.3,74.7z"/>
	<path id="XMLID_77_" class="st1" d="M29.3,86.6h16.3V24H64c0.8-1.4,1.7-2.7,2.6-3.9c3.4-4.6,7.7-8.4,12.7-11.1H0v15h29.3V86.6z"/>
	<path id="XMLID_75_" class="st1" d="M92.9,73l-0.5,0.5l-1.2,1.3l-8.3,8.6c5.1,2.4,11.3,3.8,18.5,3.8c12.8,0,22.2-4.5,28.5-11.4
		c-0.3-0.4-0.6-0.8-0.9-1.2c-2.7-3.9-4.7-8.3-6-13c-3.5,7.1-10.3,12.5-21.7,12.5C98.2,74.2,95.4,73.8,92.9,73z"/>
	<path id="XMLID_51_" class="st1" d="M137.2,21.6c2.9,4.3,5.1,9.2,6.4,14.5c2.2-5.2,8-13.6,21.4-13.6c2.8,0,5.4,0.4,7.8,1.1l1-1.1
		l0.8-0.8l9.5-9.8l0.1-0.1l-0.3-0.2c-5.6-2.8-11.9-4.2-18.9-4.2c-12,0-22.1,4.2-29.3,12.1c0.6,0.7,1,1.2,1.3,1.6L137.2,21.6z"/>
	<path id="XMLID_49_" class="st1" d="M193.8,19l-0.1,0.2l-7.2,12l-0.6,1l-0.8,1.3l-0.1,0.2c2.4,4.2,3.6,9.4,3.5,14.8
		c-0.2,12-6.6,24.8-23.7,24.8c-8.5,0-14.9-3-19-9c-1-1.4-1.8-2.9-2.5-4.6c-1.3-3.2-2.1-6.9-2.3-10.8c0-0.1,0-0.2,0-0.4
		c0-0.1,0-0.2,0-0.3c0-0.1,0-0.3,0-0.4l0-1h0c-0.1-3-0.4-6-1.1-8.8c-0.9-4.3-2.5-8.3-4.6-12c-0.1-0.3-0.3-0.5-0.4-0.8
		s-0.3-0.5-0.5-0.8s-0.3-0.5-0.5-0.7c0,0,0,0,0,0l-0.2-0.3c-0.2-0.2-0.4-0.6-0.8-1.1c-0.1-0.1-0.2-0.2-0.3-0.4
		c-0.1-0.1-0.2-0.2-0.3-0.4c0,0-0.1-0.1-0.1-0.1c-0.5-0.6-1.1-1.3-1.9-2.1c-0.3-0.3-0.6-0.6-0.9-0.9c-1-0.9-2-1.8-3-2.6
		c-1.2-0.9-2.4-1.9-3.7-2.7c-0.7-0.5-1.5-0.9-2.3-1.3l0.1-0.1l-1.3-0.6c-0.4-0.2-0.9-0.4-1.4-0.6l0,0c-2.4-1.1-4.9-1.8-7.4-2.2
		c-2.9-0.6-6-0.9-9.1-0.9C97.1,7.4,93,7.9,89.3,9c-1.8,0.5-3.6,1.1-5.3,1.9h0L83.8,11c-5.6,2.5-10.4,6.4-14.1,11.3
		c-5.3,7.1-8.2,16.3-8.2,26c0,11.3,3.8,21.4,10.6,28.6l0.2,0.2l0.4-0.6l6.4-10.6l0.6-1.1l0.5-0.8l0.9-1.6c-2.2-3.9-3.4-8.7-3.6-13.9
		c-0.2-7.9,2.8-18,11.6-23.1l0.2-0.1c3.4-1.9,7.5-2.9,12-2.9c0.5,0,0.9,0,1.4,0c2.4,0.1,8.4,0.9,13.5,4.7c0,0,0.1,0.1,0.1,0.1
		c0.7,0.5,1.3,1.1,1.9,1.8l0.9,0.9l0,0c0.4,0.5,0.8,1,1.2,1.5l0,0.1l0.4,0.6c0.6,1,1.3,2,1.8,3.1l0.1,0.1c0.1,0.1,0.1,0.3,0.2,0.4
		v0.1l0.1,0.2l0,0.1l0,0l0.1,0.3c1.5,3.6,2.2,7.7,2.2,11.8l0,1.1h0c0,0.3,0,0.5,0,0.8c0.1,3.4,0.6,6.7,1.4,9.8c0,0,0,0,0,0l0.2,0.8
		c0.1,0.3,0.1,0.5,0.2,0.8c0.2,0.8,0.5,1.6,0.8,2.4c0.2,0.5,0.4,1,0.6,1.5c0.2,0.5,0.4,1,0.6,1.5c0.1,0.3,0.2,0.5,0.4,0.7
		c0.1,0.3,0.2,0.5,0.4,0.7c0.3,0.5,0.5,0.9,0.8,1.4c0.1,0.2,0.2,0.4,0.3,0.5c0.1,0.1,0.2,0.3,0.3,0.4c0.1,0.2,0.2,0.4,0.4,0.6
		c0.3,0.4,0.5,0.8,0.8,1.2c0.3,0.4,0.5,0.7,0.8,1.1c0.6,0.8,1.2,1.5,1.8,2.2c0.1,0.1,0.1,0.1,0.1,0.2c0.9,1,1.8,1.9,2.7,2.7
		c7,6.4,16.3,9.6,27.4,9.6c27.2,0,39.6-20.1,39.8-40.1c0.1-11-3.8-21.5-10.7-28.9L193.8,19z"/>
	<path id="XMLID_2_" class="st3" d="M106.2,42.8c-3.3-2.5-8-1.6-10.1,1.9L83.5,65.9L83,66.7l-0.1,0.1l-0.6,0.9l-6.4,10.6l-0.2,0.4
		l0,0l-0.4,0.7L65.4,96l13.5-13.9l0.5-0.6l0,0l0.3-0.4l8.6-8.9l0.5-0.5l0.2-0.2l0.5-0.6L106.9,53c1.3-1.3,1.9-3.1,1.9-4.8
		C108.8,46.2,107.9,44.2,106.2,42.8z"/>
</g>
</svg>
